<svg data-v-423bf9ae="" xmlns="http://www.w3.org/2000/svg" viewBox="0 0 824 90" class="iconLeftSlogan"><!----><!----><!----><g data-v-423bf9ae="" id="e4e52a34-8200-4de1-a480-b13b12a0f326" fill="black" transform="matrix(5.7526364568010235,0,0,5.7526364568010235,101.31350588955831,-18.178331458825404)"><path d="M2.60 3.51L2.60 3.51L5.39 3.47Q8.16 3.47 9.51 4.60Q10.85 5.73 10.85 8.06L10.85 8.06Q10.85 9.51 10.33 10.65Q9.81 11.80 8.82 12.46L8.82 12.46Q7.59 13.29 5.45 13.29L5.45 13.29L5.18 13.29L2.60 13.27L1.51 13.27L1.51 12.96Q1.75 12.07 1.75 10.19L1.75 10.19L1.75 6.58Q1.75 4.69 1.51 3.79L1.51 3.79L1.51 3.49Q2.13 3.51 2.60 3.51ZM3.74 7.78L3.74 7.78L3.74 8.60Q3.74 11.61 3.78 12.07L3.78 12.07Q4.69 12.14 5.38 12.14L5.38 12.14Q7.13 12.14 7.80 11.75L7.80 11.75Q8.74 10.77 8.74 8.29L8.74 8.29Q8.74 6.23 7.90 5.37Q7.07 4.51 5.12 4.51L5.12 4.51Q5.07 4.51 3.77 4.52L3.77 4.52Q3.74 5.19 3.74 7.78ZM15.15 13.47L15.15 13.47Q13.72 13.47 13.22 12.86Q12.73 12.25 12.73 10.88L12.73 10.88L12.73 9.21Q12.73 7.83 12.31 6.87L12.31 6.87L12.31 6.57L14.74 6.57L14.74 6.90Q14.53 7.63 14.53 8.79L14.53 8.79L14.53 10.65Q14.53 11.35 14.77 11.74Q15.01 12.12 15.44 12.12L15.44 12.12Q16.18 12.12 17.21 11.41L17.21 11.41L17.21 9.21Q17.21 7.80 16.80 6.87L16.80 6.87L16.80 6.57L19.22 6.57L19.22 6.90Q19.01 7.63 19.01 8.79L19.01 8.79L19.01 10.65Q19.01 11.28 19.21 11.89Q19.42 12.49 19.70 12.73L19.70 12.73L19.74 13.03L17.54 13.59Q17.25 13.09 17.21 12.46L17.21 12.46Q16.00 13.47 15.15 13.47ZM26.11 6.30L26.11 6.30Q27.16 6.30 27.73 6.95Q28.31 7.60 28.31 8.83L28.31 8.83L28.31 10.61Q28.31 12.00 28.73 12.98L28.73 12.98L28.73 13.29L26.26 13.29L26.26 12.98Q26.50 12.32 26.50 11.09L26.50 11.09L26.50 9.34Q26.50 8.53 26.31 8.14Q26.11 7.76 25.47 7.76Q24.82 7.76 23.83 8.34L23.83 8.34L23.83 10.64Q23.83 12.11 24.23 12.98L24.23 12.98L24.23 13.29L21.78 13.29L21.78 12.98Q22.02 12.26 22.02 10.99L22.02 10.99L22.02 9.11Q22.02 7.45 21.18 7.03L21.18 7.03L21.18 6.72L23.45 6.29L23.60 6.55Q23.72 6.89 23.76 7.45L23.76 7.45Q24.47 6.87 25.00 6.59Q25.52 6.30 26.11 6.30ZM34.23 11.68L34.23 10.49Q33.73 10.30 33.12 10.30Q32.51 10.30 32.19 10.53L32.19 10.53Q31.98 10.79 31.98 11.23L31.98 11.23Q31.98 12.32 32.93 12.32L32.93 12.32Q33.71 12.32 34.23 11.68L34.23 11.68ZM32.35 13.54L32.35 13.54Q31.47 13.54 30.80 13.01Q30.13 12.47 30.13 11.47L30.13 11.47Q30.13 9.52 32.97 9.52L32.97 9.52L34.22 9.58L34.22 8.72Q34.22 7.99 33.85 7.55Q33.49 7.10 32.73 7.10L32.73 7.10Q32.56 7.10 32.30 7.27Q32.03 7.45 31.85 7.63L31.85 7.63Q31.28 8.18 30.93 8.53L30.93 8.53Q30.23 7.70 30.17 6.86L30.17 6.86Q31.96 6.30 33.19 6.30Q34.43 6.30 35.25 6.87Q36.08 7.45 36.08 8.68L36.08 8.68L36.08 10.88Q36.08 11.51 36.29 12.08Q36.50 12.66 36.81 12.85L36.81 12.85L36.83 13.16L34.83 13.58Q34.61 13.16 34.41 12.40L34.41 12.40Q34.05 12.80 33.82 12.98Q33.60 13.17 33.20 13.36Q32.80 13.54 32.35 13.54ZM42.78 6.30L42.78 6.30Q44.11 6.30 44.55 7.48L44.55 7.48Q45.01 7.10 45.30 6.89Q45.58 6.68 46.02 6.49Q46.45 6.30 46.84 6.30L46.84 6.30Q47.89 6.30 48.47 6.95Q49.04 7.60 49.04 8.83L49.04 8.83L49.04 10.75Q49.04 12.00 49.46 12.98L49.46 12.98L49.46 13.29L47.00 13.29L47.00 12.98Q47.24 12.32 47.24 11.19L47.24 11.19L47.24 9.34Q47.24 8.54 47.04 8.15Q46.84 7.76 46.22 7.76Q45.60 7.76 44.73 8.25L44.73 8.25Q44.76 8.61 44.76 8.83L44.76 8.83L44.76 10.75Q44.76 12.00 45.18 12.98L45.18 12.98L45.18 13.29L42.85 13.29L42.85 12.98Q43.09 12.32 43.09 11.19L43.09 11.19L43.09 9.34Q43.09 8.54 42.91 8.15Q42.73 7.76 42.15 7.76Q41.57 7.76 40.60 8.34L40.60 8.34L40.60 10.78Q40.60 12.11 41.01 12.98L41.01 12.98L41.01 13.29L38.56 13.29L38.56 12.98Q38.79 12.26 38.79 11.09L38.79 11.09L38.79 9.02Q38.79 7.45 37.95 7.03L37.95 7.03L37.95 6.72L40.22 6.29L40.36 6.55Q40.47 6.83 40.53 7.45L40.53 7.45Q41.19 6.86 41.69 6.58Q42.18 6.30 42.78 6.30ZM53.12 3.16L53.27 3.25Q53.40 3.36 53.45 3.72Q53.49 4.09 53.49 4.28Q53.49 4.48 53.47 4.63L53.47 4.63L53.34 4.75Q52.72 4.93 51.73 5.00L51.73 5.00L51.58 4.93Q51.46 4.75 51.40 4.33Q51.34 3.91 51.34 3.74Q51.34 3.58 51.34 3.53L51.34 3.53L51.46 3.42Q52.22 3.16 52.96 3.16L52.96 3.16L53.12 3.16ZM53.54 7.78L53.54 7.78L53.54 10.78Q53.54 12.11 53.94 12.98L53.94 12.98L53.94 13.29L51.49 13.29L51.49 12.98Q51.73 12.26 51.73 11.09L51.73 11.09L51.73 9.02Q51.73 8.25 51.49 7.73Q51.25 7.22 50.89 7.03L50.89 7.03L50.89 6.72L53.45 6.24L53.62 6.52Q53.54 6.85 53.54 7.78ZM58.49 12.38L58.49 12.38Q59.29 12.38 59.29 11.61L59.29 11.61Q59.29 10.89 57.93 10.53L57.93 10.53Q57.37 10.37 56.81 10.18Q56.25 9.98 55.86 9.55Q55.47 9.11 55.47 8.44L55.47 8.44Q55.47 7.48 56.34 6.94Q57.20 6.40 58.45 6.40Q59.70 6.40 61.05 7.00L61.05 7.00Q60.98 7.62 60.30 8.48L60.30 8.48Q59.74 7.92 59.14 7.63Q58.53 7.34 58.09 7.34Q57.64 7.34 57.40 7.43L57.40 7.43Q57.19 7.62 57.19 8.03Q57.19 8.44 57.59 8.67Q57.99 8.89 58.56 9.02Q59.14 9.16 59.71 9.35Q60.28 9.55 60.68 10.02Q61.08 10.49 61.08 11.24L61.08 11.24Q61.08 12.33 60.24 12.89Q59.39 13.44 57.99 13.44Q56.59 13.44 55.31 12.64L55.31 12.64Q55.37 11.80 55.94 11.09L55.94 11.09Q57.33 12.38 58.49 12.38ZM73.04 13.29L66.35 13.29L66.35 12.98Q66.57 12.01 66.57 10.21L66.57 10.21L66.57 6.58Q66.57 4.63 66.35 3.79L66.35 3.79L66.35 3.49L68.78 3.49L68.78 3.79Q68.68 4.12 68.62 5.11Q68.56 6.10 68.56 6.62L68.56 6.62L68.56 10.36Q68.56 11.38 68.64 12.22L68.64 12.22Q68.91 12.25 69.75 12.25L69.75 12.25Q71.96 12.25 73.02 11.80L73.02 11.80L73.29 11.80L73.04 13.29ZM77.95 11.68L77.95 10.49Q77.45 10.30 76.84 10.30Q76.23 10.30 75.91 10.53L75.91 10.53Q75.70 10.79 75.70 11.23L75.70 11.23Q75.70 12.32 76.65 12.32L76.65 12.32Q77.43 12.32 77.95 11.68L77.95 11.68ZM76.08 13.54L76.08 13.54Q75.19 13.54 74.52 13.01Q73.85 12.47 73.85 11.47L73.85 11.47Q73.85 9.52 76.69 9.52L76.69 9.52L77.94 9.58L77.94 8.72Q77.94 7.99 77.57 7.55Q77.21 7.10 76.45 7.10L76.45 7.10Q76.29 7.10 76.02 7.27Q75.75 7.45 75.57 7.63L75.57 7.63Q75.00 8.18 74.65 8.53L74.65 8.53Q73.95 7.70 73.89 6.86L73.89 6.86Q75.68 6.30 76.92 6.30Q78.15 6.30 78.97 6.87Q79.80 7.45 79.80 8.68L79.80 8.68L79.80 10.88Q79.80 11.51 80.01 12.08Q80.22 12.66 80.53 12.85L80.53 12.85L80.56 13.16L78.55 13.58Q78.33 13.16 78.13 12.40L78.13 12.40Q77.77 12.80 77.55 12.98Q77.32 13.17 76.92 13.36Q76.52 13.54 76.08 13.54ZM83.20 6.38L83.20 6.59Q83.20 6.92 83.80 8.68L83.80 8.68L84.64 11.06Q85.09 9.80 85.37 9.07L85.37 9.07Q85.64 8.39 85.86 7.57L85.86 7.57Q85.57 6.94 85.43 6.83L85.43 6.83L85.43 6.52L87.56 6.43L87.56 6.64Q87.56 7.03 88.17 8.78L88.17 8.78L89.00 11.06Q89.89 8.26 90.04 7.75Q90.19 7.24 90.19 6.62L90.19 6.62L90.19 6.48L92.09 6.48L92.08 6.80Q91.70 7.07 91.35 8.18L91.35 8.18L89.89 12.66L89.71 13.41L88.09 13.44L87.84 12.63L86.62 9.51L85.48 12.67L85.33 13.41L83.75 13.44L83.50 12.63L81.66 8.11Q81.47 7.63 81.23 7.28Q81.00 6.93 80.86 6.86L80.86 6.86L80.86 6.55L83.20 6.38ZM102.52 4.82L102.26 4.82Q101.47 4.59 100.42 4.59Q99.36 4.59 99.04 4.62L99.04 4.62Q98.99 5.03 98.99 7.71L98.99 7.71L102.21 7.64L101.70 8.96L101.43 8.96Q100.76 8.82 100.00 8.82Q99.25 8.82 98.99 8.85L98.99 8.85L98.99 10.15Q98.99 12.14 99.22 12.98L99.22 12.98L99.22 13.29L96.77 13.29L96.77 12.98Q97.01 11.97 97.01 10.16L97.01 10.16L97.01 6.62Q97.01 4.80 96.77 3.79L96.77 3.79L96.77 3.49L102.93 3.44L102.52 4.82ZM106.05 3.16L106.20 3.25Q106.33 3.36 106.38 3.72Q106.43 4.09 106.43 4.28Q106.43 4.48 106.40 4.63L106.40 4.63L106.27 4.75Q105.66 4.93 104.66 5.00L104.66 5.00L104.51 4.93Q104.40 4.75 104.33 4.33Q104.27 3.91 104.27 3.74Q104.27 3.58 104.27 3.53L104.27 3.53L104.40 3.42Q105.15 3.16 105.90 3.16L105.90 3.16L106.05 3.16ZM106.47 7.78L106.47 7.78L106.47 10.78Q106.47 12.11 106.88 12.98L106.88 12.98L106.88 13.29L104.43 13.29L104.43 12.98Q104.66 12.26 104.66 11.09L104.66 11.09L104.66 9.02Q104.66 8.25 104.43 7.73Q104.19 7.22 103.82 7.03L103.82 7.03L103.82 6.72L106.39 6.24L106.55 6.52Q106.47 6.85 106.47 7.78ZM111.24 12.98L111.24 13.29L108.79 13.29L108.79 12.98Q109.03 12.22 109.03 11.10L109.03 11.10L109.03 9.02Q109.03 8.40 108.80 7.82Q108.57 7.24 108.25 7.06L108.25 7.06L108.25 6.75L110.22 6.29L110.36 6.48Q110.45 6.61 110.61 7.06L110.61 7.06Q111.52 6.30 112.52 6.30L112.52 6.30Q113.01 6.30 113.43 6.50L113.43 6.50Q113.43 6.57 113.43 6.62L113.43 6.62Q113.43 7.50 113.08 8.39L113.08 8.39Q112.34 7.87 111.48 7.87L111.48 7.87Q111.22 7.87 110.84 7.95L110.84 7.95L110.84 10.71Q110.84 12.05 111.24 12.98L111.24 12.98ZM118.89 6.30L118.89 6.30Q120.22 6.30 120.65 7.48L120.65 7.48Q121.11 7.10 121.40 6.89Q121.69 6.68 122.12 6.49Q122.56 6.30 122.95 6.30L122.95 6.30Q124.00 6.30 124.57 6.95Q125.15 7.60 125.15 8.83L125.15 8.83L125.15 10.75Q125.15 12.00 125.57 12.98L125.57 12.98L125.57 13.29L123.10 13.29L123.10 12.98Q123.34 12.32 123.34 11.19L123.34 11.19L123.34 9.34Q123.34 8.54 123.14 8.15Q122.95 7.76 122.33 7.76Q121.70 7.76 120.83 8.25L120.83 8.25Q120.86 8.61 120.86 8.83L120.86 8.83L120.86 10.75Q120.86 12.00 121.28 12.98L121.28 12.98L121.28 13.29L118.96 13.29L118.96 12.98Q119.20 12.32 119.20 11.19L119.20 11.19L119.20 9.34Q119.20 8.54 119.01 8.15Q118.83 7.76 118.25 7.76Q117.67 7.76 116.70 8.34L116.70 8.34L116.70 10.78Q116.70 12.11 117.11 12.98L117.11 12.98L117.11 13.29L114.66 13.29L114.66 12.98Q114.90 12.26 114.90 11.09L114.90 11.09L114.90 9.02Q114.90 7.45 114.06 7.03L114.06 7.03L114.06 6.72L116.33 6.29L116.47 6.55Q116.58 6.83 116.63 7.45L116.63 7.45Q117.29 6.86 117.79 6.58Q118.29 6.30 118.89 6.30Z"></path></g><!----><g data-v-423bf9ae="" id="1e8f47df-9b49-4650-bd65-0ad5f2674855" transform="matrix(2.8125,0,0,2.8125,0,0)" stroke="none" fill="black"><path d="M29.625 1l-3.099 3.172H4.054v23.657h22.472L29.625 31H1V1h28.625M32 0H0v32h32l-5.054-5.172H5.054V5.172h21.893L32 0z"></path><path d="M21.038 10.962v10.076H10.962V10.962h10.076m1-1H9.962v12.076h12.076V9.962z"></path></g><!----><g data-v-423bf9ae="" id="fdbc83ae-b365-4d22-bcf6-fe33976fd4ae" fill="black" transform="matrix(1.1736821324282694,0,0,1.1736821324282694,108.77937768222756,54.448482762052286)"><path d="M6.62 14.38L6.62 14.38Q6.97 14.98 6.97 15.54L6.97 15.54Q6.97 15.67 6.95 15.77Q6.93 15.88 6.90 15.99L6.90 15.99Q6.66 15.96 6.41 15.95Q6.15 15.93 5.87 15.93L5.87 15.93Q5.53 15.93 5.19 15.95Q4.84 15.97 4.42 16.02Q4.00 16.06 3.49 16.13Q2.97 16.20 2.28 16.31L2.28 16.31Q1.96 16.20 1.64 15.87Q1.32 15.54 1.04 15.08L1.04 15.08Q1.18 14.77 1.39 14.31Q1.60 13.86 1.88 13.21Q2.16 12.56 2.50 11.68Q2.84 10.81 3.23 9.66L3.23 9.66Q3.49 8.90 3.67 8.33Q3.85 7.76 4.00 7.22Q4.14 6.68 4.28 6.09Q4.42 5.50 4.59 4.73L4.59 4.73Q5.15 4.84 5.57 5.14Q5.98 5.45 6.36 6.01L6.36 6.01Q6.24 6.19 6.06 6.59Q5.88 7 5.63 7.58Q5.39 8.16 5.10 8.90Q4.80 9.63 4.48 10.47L4.48 10.47Q4.17 11.30 3.88 12.03Q3.58 12.75 3.35 13.34Q3.12 13.93 2.98 14.35Q2.84 14.77 2.84 14.98L2.84 14.98Q3.07 14.97 3.25 14.95Q3.43 14.94 3.63 14.90Q3.82 14.87 4.05 14.82Q4.28 14.77 4.61 14.69L4.61 14.69Q4.89 14.62 5.12 14.57Q5.36 14.52 5.59 14.48Q5.82 14.45 6.07 14.43Q6.31 14.41 6.62 14.38ZM21.04 9.21L21.04 9.21Q21.50 9.21 21.76 9.46Q22.02 9.72 22.02 10.16L22.02 10.16Q22.02 10.28 22.00 10.39Q21.98 10.51 21.95 10.60L21.95 10.60Q21.77 10.57 21.55 10.55Q21.32 10.53 21.01 10.53L21.01 10.53Q20.41 10.53 19.80 10.63Q19.18 10.74 18.62 10.81L18.62 10.81Q18.30 11.55 18.03 12.24Q17.77 12.94 17.58 13.51Q17.39 14.08 17.28 14.50Q17.18 14.92 17.16 15.13L17.16 15.13Q18.30 14.90 19.45 14.73Q20.61 14.56 21.88 14.48L21.88 14.48Q22.04 14.71 22.14 14.99Q22.25 15.27 22.25 15.60L22.25 15.60Q22.25 15.68 22.25 15.78Q22.25 15.88 22.22 15.97L22.22 15.97Q21.83 15.96 21.39 15.95Q20.96 15.95 20.26 15.95L20.26 15.95Q19.80 15.95 19.38 15.97Q18.97 15.99 18.55 16.03Q18.13 16.07 17.66 16.14Q17.19 16.21 16.60 16.31L16.60 16.31Q15.96 16.06 15.36 15.08L15.36 15.08Q15.60 14.57 16.02 13.54Q16.45 12.52 17.11 10.79L17.11 10.79Q16.48 10.60 16.28 10.09L16.28 10.09Q16.35 10.02 16.69 9.92Q17.02 9.81 17.51 9.70L17.51 9.70Q17.72 9.16 17.87 8.75Q18.02 8.34 18.13 7.99Q18.24 7.63 18.33 7.29Q18.42 6.94 18.51 6.54L18.51 6.54Q18.02 6.51 17.74 6.27Q17.46 6.02 17.46 5.63L17.46 5.63Q17.46 5.52 17.49 5.36Q17.53 5.21 17.57 5.10L17.57 5.10Q17.85 5.14 18.11 5.15Q18.37 5.17 18.79 5.17L18.79 5.17Q19.67 5.17 20.44 5.12Q21.21 5.07 21.83 5.01Q22.46 4.96 22.90 4.91Q23.35 4.86 23.59 4.86L23.59 4.86Q23.91 4.86 24.16 5.19Q24.42 5.53 24.54 6.15L24.54 6.15Q24.11 6.10 23.84 6.09Q23.56 6.08 23.35 6.08L23.35 6.08Q22.58 6.08 21.95 6.15Q21.31 6.23 20.72 6.31L20.72 6.31Q20.64 6.44 20.53 6.64Q20.43 6.83 20.26 7.18Q20.09 7.53 19.84 8.06Q19.60 8.60 19.25 9.39L19.25 9.39Q19.78 9.31 20.25 9.26Q20.72 9.21 21.04 9.21ZM38.40 10.72L38.40 10.72Q38.77 10.72 38.98 10.98Q39.19 11.23 39.19 11.68L39.19 11.68Q39.19 11.79 39.17 11.91Q39.16 12.03 39.13 12.11L39.13 12.11Q38.84 12.04 38.49 12.03L38.49 12.03Q38.40 12.64 38.04 13.32Q37.67 14 37.16 14.60Q36.64 15.19 36.02 15.64Q35.41 16.09 34.80 16.24L34.80 16.24Q32.93 16.20 32.07 15.27Q31.21 14.34 31.21 12.36L31.21 12.36Q31.21 10.92 31.74 9.57Q32.27 8.22 33.15 7.17Q34.03 6.12 35.17 5.48Q36.32 4.84 37.55 4.84L37.55 4.84Q38.51 4.84 39.05 5.25Q39.59 5.66 39.59 6.40L39.59 6.40Q39.59 6.89 39.36 7.31Q39.13 7.73 38.60 8.22L38.60 8.22Q38.28 8.12 38.04 7.88Q37.80 7.63 37.74 7.31L37.74 7.31Q38.22 6.96 38.42 6.66Q38.61 6.37 38.61 5.96L38.61 5.96Q38.61 5.32 37.84 5.32L37.84 5.32Q37.21 5.32 36.49 5.79Q35.77 6.26 35.04 7.14L35.04 7.14Q34.01 8.39 33.53 9.71Q33.05 11.03 33.05 12.68L33.05 12.68Q33.05 13.30 33.18 13.80Q33.31 14.31 33.52 14.69Q33.73 15.06 34.01 15.29Q34.30 15.51 34.64 15.54L34.64 15.54Q35.08 15.44 35.53 15.09Q35.98 14.73 36.35 14.25Q36.72 13.76 36.98 13.21Q37.24 12.66 37.30 12.15L37.30 12.15Q36.90 12.24 36.55 12.31Q36.19 12.39 35.87 12.39L35.87 12.39Q35.45 12.39 35.13 12.18Q34.82 11.97 34.71 11.61L34.71 11.61Q34.96 11.47 35.44 11.31Q35.92 11.16 36.47 11.03Q37.02 10.89 37.54 10.81Q38.07 10.72 38.40 10.72ZM47.38 16.24L47.38 16.24Q46.70 16.04 46.45 15.85Q46.19 15.65 46.19 15.36L46.19 15.36Q46.19 15.13 46.31 14.73Q46.44 14.32 46.68 13.77Q46.93 13.22 47.27 12.54Q47.61 11.87 48.05 11.10L48.05 11.10Q47.68 11.09 47.40 11.08Q47.11 11.07 46.93 11.07L46.93 11.07Q47.01 10.86 47.40 10.71Q47.80 10.56 48.44 10.44L48.44 10.44Q48.99 9.53 49.61 8.71Q50.23 7.88 50.86 7.19Q51.49 6.50 52.12 5.97Q52.75 5.45 53.33 5.14L53.33 5.14Q53.34 5.04 53.35 4.97Q53.35 4.90 53.35 4.87L53.35 4.87Q53.55 4.87 53.88 4.97Q54.21 5.07 54.52 5.21Q54.84 5.35 55.08 5.49Q55.33 5.64 55.36 5.74L55.36 5.74Q54.89 6.55 54.45 8.17Q54.00 9.79 53.70 12.04L53.70 12.04Q53.63 12.60 53.59 13.31Q53.54 14.03 53.54 14.91L53.54 14.91Q53.54 15.22 53.54 15.54Q53.54 15.86 53.56 16.21L53.56 16.21Q53.54 16.23 53.51 16.23Q53.48 16.23 53.40 16.23L53.40 16.23Q53.20 16.23 52.94 16.16Q52.68 16.10 52.44 16.01Q52.19 15.92 52.02 15.81Q51.84 15.69 51.80 15.61L51.80 15.61Q51.79 15.43 51.79 15.25Q51.79 15.08 51.79 14.88L51.79 14.88Q51.79 14.01 51.85 13.12Q51.91 12.22 52.07 11.27L52.07 11.27Q51.87 11.26 51.55 11.23Q51.23 11.21 50.83 11.20Q50.43 11.19 49.97 11.16Q49.52 11.14 49.08 11.13L49.08 11.13Q48.75 11.76 48.45 12.38Q48.16 13.01 47.95 13.64L47.95 13.64Q47.71 14.31 47.56 14.98Q47.42 15.65 47.38 16.24ZM52.78 7.83L52.78 7.83Q52.84 7.63 52.91 7.29Q52.99 6.94 53.06 6.57L53.06 6.57Q52.71 6.69 52.28 7.03Q51.86 7.36 51.40 7.86Q50.95 8.36 50.48 8.98Q50.01 9.60 49.57 10.30L49.57 10.30Q50.75 10.21 52.25 10.18L52.25 10.18Q52.36 9.59 52.49 9.01Q52.63 8.43 52.78 7.83ZM67.94 14.38L67.94 14.38Q68.29 14.98 68.29 15.54L68.29 15.54Q68.29 15.67 68.27 15.77Q68.25 15.88 68.22 15.99L68.22 15.99Q67.98 15.96 67.72 15.95Q67.47 15.93 67.19 15.93L67.19 15.93Q66.85 15.93 66.51 15.95Q66.16 15.97 65.74 16.02Q65.32 16.06 64.81 16.13Q64.29 16.20 63.60 16.31L63.60 16.31Q63.28 16.20 62.96 15.87Q62.64 15.54 62.36 15.08L62.36 15.08Q62.50 14.77 62.71 14.31Q62.92 13.86 63.20 13.21Q63.48 12.56 63.82 11.68Q64.16 10.81 64.55 9.66L64.55 9.66Q64.81 8.90 64.99 8.33Q65.17 7.76 65.32 7.22Q65.46 6.68 65.60 6.09Q65.74 5.50 65.91 4.73L65.91 4.73Q66.47 4.84 66.89 5.14Q67.30 5.45 67.68 6.01L67.68 6.01Q67.56 6.19 67.38 6.59Q67.20 7 66.95 7.58Q66.71 8.16 66.42 8.90Q66.12 9.63 65.80 10.47L65.80 10.47Q65.49 11.30 65.20 12.03Q64.90 12.75 64.67 13.34Q64.44 13.93 64.30 14.35Q64.16 14.77 64.16 14.98L64.16 14.98Q64.39 14.97 64.57 14.95Q64.75 14.94 64.95 14.90Q65.14 14.87 65.37 14.82Q65.60 14.77 65.93 14.69L65.93 14.69Q66.21 14.62 66.44 14.57Q66.68 14.52 66.91 14.48Q67.14 14.45 67.39 14.43Q67.63 14.41 67.94 14.38ZM92.85 9.21L92.85 9.21Q93.31 9.21 93.57 9.46Q93.83 9.72 93.83 10.16L93.83 10.16Q93.83 10.28 93.81 10.39Q93.79 10.51 93.76 10.60L93.76 10.60Q93.58 10.57 93.35 10.55Q93.13 10.53 92.82 10.53L92.82 10.53Q92.22 10.53 91.60 10.63Q90.99 10.74 90.43 10.81L90.43 10.81Q90.10 11.55 89.84 12.24Q89.57 12.94 89.38 13.51Q89.19 14.08 89.09 14.50Q88.98 14.92 88.97 15.13L88.97 15.13Q90.10 14.90 91.26 14.73Q92.41 14.56 93.69 14.48L93.69 14.48Q93.84 14.71 93.95 14.99Q94.05 15.27 94.05 15.60L94.05 15.60Q94.05 15.68 94.05 15.78Q94.05 15.88 94.02 15.97L94.02 15.97Q93.63 15.96 93.20 15.95Q92.76 15.95 92.06 15.95L92.06 15.95Q91.60 15.95 91.19 15.97Q90.78 15.99 90.36 16.03Q89.94 16.07 89.47 16.14Q89.00 16.21 88.41 16.31L88.41 16.31Q87.77 16.06 87.16 15.08L87.16 15.08Q87.40 14.57 87.83 13.54Q88.26 12.52 88.91 10.79L88.91 10.79Q88.28 10.60 88.09 10.09L88.09 10.09Q88.16 10.02 88.49 9.92Q88.83 9.81 89.32 9.70L89.32 9.70Q89.53 9.16 89.68 8.75Q89.82 8.34 89.94 7.99Q90.05 7.63 90.14 7.29Q90.23 6.94 90.31 6.54L90.31 6.54Q89.82 6.51 89.54 6.27Q89.26 6.02 89.26 5.63L89.26 5.63Q89.26 5.52 89.30 5.36Q89.33 5.21 89.38 5.10L89.38 5.10Q89.66 5.14 89.91 5.15Q90.17 5.17 90.59 5.17L90.59 5.17Q91.48 5.17 92.25 5.12Q93.02 5.07 93.64 5.01Q94.26 4.96 94.71 4.91Q95.16 4.86 95.40 4.86L95.40 4.86Q95.72 4.86 95.97 5.19Q96.22 5.53 96.35 6.15L96.35 6.15Q95.91 6.10 95.64 6.09Q95.37 6.08 95.16 6.08L95.16 6.08Q94.39 6.08 93.75 6.15Q93.11 6.23 92.53 6.31L92.53 6.31Q92.44 6.44 92.34 6.64Q92.23 6.83 92.06 7.18Q91.90 7.53 91.65 8.06Q91.41 8.60 91.06 9.39L91.06 9.39Q91.59 9.31 92.06 9.26Q92.53 9.21 92.85 9.21ZM110.24 15.23L110.24 15.23Q110.11 15.36 109.86 15.52Q109.62 15.68 109.34 15.81Q109.06 15.95 108.77 16.05Q108.49 16.16 108.30 16.17L108.30 16.17Q108.12 16.17 107.98 16.03Q107.84 15.89 107.69 15.39Q107.53 14.90 107.33 13.95Q107.13 13.01 106.82 11.38L106.82 11.38Q106.02 12.21 105.34 12.98Q104.65 13.75 104.16 14.41Q103.67 15.06 103.39 15.55Q103.11 16.04 103.11 16.30L103.11 16.30Q102.94 16.28 102.77 16.17Q102.59 16.06 102.45 15.90Q102.31 15.75 102.22 15.57Q102.13 15.39 102.13 15.22L102.13 15.22Q102.17 15.06 102.34 14.78Q102.51 14.50 102.76 14.18L102.76 14.18Q103.29 13.50 104.28 12.59Q105.27 11.69 106.67 10.60L106.67 10.60Q105.76 6.08 104.09 6.08L104.09 6.08Q104.26 5.67 104.63 5.36Q105.00 5.05 105.42 4.98L105.42 4.98Q105.88 4.98 106.18 5.10Q106.47 5.22 106.71 5.70Q106.95 6.17 107.18 7.13Q107.42 8.09 107.79 9.76L107.79 9.76Q108.25 9.27 108.67 8.76Q109.10 8.25 109.47 7.77Q109.83 7.29 110.11 6.89Q110.39 6.48 110.54 6.19L110.54 6.19Q110.70 5.92 110.70 5.64L110.70 5.64Q110.70 5.39 110.54 4.98L110.54 4.98Q110.99 5.25 111.22 5.48Q111.45 5.71 111.62 6.12L111.62 6.12Q111.59 6.45 111.43 6.79Q111.27 7.13 110.87 7.59Q110.47 8.06 109.77 8.75Q109.07 9.44 107.94 10.46L107.94 10.46Q108.21 11.72 108.46 12.59Q108.71 13.45 108.98 14.01Q109.24 14.56 109.55 14.85Q109.86 15.13 110.24 15.23ZM118.71 12.43L118.71 12.43Q118.71 11.45 118.94 10.51Q119.17 9.56 119.59 8.71Q120.01 7.87 120.59 7.16Q121.17 6.45 121.86 5.94Q122.56 5.42 123.34 5.13Q124.12 4.84 124.95 4.84L124.95 4.84Q125.92 4.84 126.45 5.25Q126.99 5.66 126.99 6.38L126.99 6.38Q126.99 6.66 126.92 6.96Q126.84 7.25 126.69 7.54Q126.55 7.83 126.35 8.09Q126.15 8.36 125.92 8.55L125.92 8.55Q125.55 8.50 125.29 8.22Q125.02 7.95 124.95 7.59L124.95 7.59Q125.44 7.18 125.73 6.74Q126.01 6.30 126.01 5.94L126.01 5.94Q126.01 5.32 125.24 5.32L125.24 5.32Q124.92 5.32 124.58 5.45Q124.24 5.59 123.89 5.82Q123.54 6.06 123.21 6.40Q122.88 6.73 122.60 7.14L122.60 7.14Q120.65 9.94 120.65 12.87L120.65 12.87Q120.65 13.90 120.97 14.53Q121.30 15.16 121.83 15.27L121.83 15.27Q122.43 15.13 123.35 14.50Q124.28 13.87 125.37 12.87L125.37 12.87Q125.51 13.01 125.54 13.16L125.54 13.16Q125.13 13.69 124.70 14.18Q124.26 14.67 123.84 15.08Q123.41 15.48 123.00 15.79Q122.58 16.10 122.23 16.27L122.23 16.27Q120.50 16.24 119.60 15.27Q118.71 14.31 118.71 12.43ZM139.30 9.21L139.30 9.21Q139.76 9.21 140.02 9.46Q140.28 9.72 140.28 10.16L140.28 10.16Q140.28 10.28 140.26 10.39Q140.24 10.51 140.21 10.60L140.21 10.60Q140.03 10.57 139.80 10.55Q139.58 10.53 139.27 10.53L139.27 10.53Q138.67 10.53 138.05 10.63Q137.44 10.74 136.88 10.81L136.88 10.81Q136.56 11.55 136.29 12.24Q136.02 12.94 135.83 13.51Q135.65 14.08 135.54 14.50Q135.44 14.92 135.42 15.13L135.42 15.13Q136.56 14.90 137.71 14.73Q138.87 14.56 140.14 14.48L140.14 14.48Q140.29 14.71 140.40 14.99Q140.50 15.27 140.50 15.60L140.50 15.60Q140.50 15.68 140.50 15.78Q140.50 15.88 140.48 15.97L140.48 15.97Q140.08 15.96 139.65 15.95Q139.22 15.95 138.52 15.95L138.52 15.95Q138.05 15.95 137.64 15.97Q137.23 15.99 136.81 16.03Q136.39 16.07 135.92 16.14Q135.45 16.21 134.86 16.31L134.86 16.31Q134.22 16.06 133.62 15.08L133.62 15.08Q133.85 14.57 134.28 13.54Q134.71 12.52 135.37 10.79L135.37 10.79Q134.74 10.60 134.54 10.09L134.54 10.09Q134.61 10.02 134.95 9.92Q135.28 9.81 135.77 9.70L135.77 9.70Q135.98 9.16 136.13 8.75Q136.28 8.34 136.39 7.99Q136.50 7.63 136.59 7.29Q136.68 6.94 136.77 6.54L136.77 6.54Q136.28 6.51 136.00 6.27Q135.72 6.02 135.72 5.63L135.72 5.63Q135.72 5.52 135.75 5.36Q135.79 5.21 135.83 5.10L135.83 5.10Q136.11 5.14 136.37 5.15Q136.63 5.17 137.05 5.17L137.05 5.17Q137.93 5.17 138.70 5.12Q139.47 5.07 140.09 5.01Q140.71 4.96 141.16 4.91Q141.61 4.86 141.85 4.86L141.85 4.86Q142.17 4.86 142.42 5.19Q142.67 5.53 142.80 6.15L142.80 6.15Q142.37 6.10 142.09 6.09Q141.82 6.08 141.61 6.08L141.61 6.08Q140.84 6.08 140.20 6.15Q139.57 6.23 138.98 6.31L138.98 6.31Q138.89 6.44 138.79 6.64Q138.68 6.83 138.52 7.18Q138.35 7.53 138.10 8.06Q137.86 8.60 137.51 9.39L137.51 9.39Q138.04 9.31 138.51 9.26Q138.98 9.21 139.30 9.21ZM154.25 14.38L154.25 14.38Q154.60 14.98 154.60 15.54L154.60 15.54Q154.60 15.67 154.58 15.77Q154.56 15.88 154.53 15.99L154.53 15.99Q154.29 15.96 154.03 15.95Q153.78 15.93 153.50 15.93L153.50 15.93Q153.16 15.93 152.82 15.95Q152.47 15.97 152.05 16.02Q151.63 16.06 151.12 16.13Q150.60 16.20 149.91 16.31L149.91 16.31Q149.59 16.20 149.27 15.87Q148.95 15.54 148.67 15.08L148.67 15.08Q148.81 14.77 149.02 14.31Q149.23 13.86 149.51 13.21Q149.79 12.56 150.13 11.68Q150.47 10.81 150.86 9.66L150.86 9.66Q151.12 8.90 151.30 8.33Q151.48 7.76 151.63 7.22Q151.77 6.68 151.91 6.09Q152.05 5.50 152.22 4.73L152.22 4.73Q152.78 4.84 153.19 5.14Q153.61 5.45 153.99 6.01L153.99 6.01Q153.87 6.19 153.69 6.59Q153.51 7 153.26 7.58Q153.02 8.16 152.73 8.90Q152.43 9.63 152.11 10.47L152.11 10.47Q151.80 11.30 151.51 12.03Q151.21 12.75 150.98 13.34Q150.75 13.93 150.61 14.35Q150.47 14.77 150.47 14.98L150.47 14.98Q150.70 14.97 150.88 14.95Q151.06 14.94 151.26 14.90Q151.45 14.87 151.68 14.82Q151.91 14.77 152.24 14.69L152.24 14.69Q152.52 14.62 152.75 14.57Q152.99 14.52 153.22 14.48Q153.45 14.45 153.70 14.43Q153.94 14.41 154.25 14.38ZM168.25 14.38L168.25 14.38Q168.60 14.98 168.60 15.54L168.60 15.54Q168.60 15.67 168.58 15.77Q168.56 15.88 168.53 15.99L168.53 15.99Q168.29 15.96 168.03 15.95Q167.78 15.93 167.50 15.93L167.50 15.93Q167.16 15.93 166.82 15.95Q166.47 15.97 166.05 16.02Q165.63 16.06 165.12 16.13Q164.60 16.20 163.91 16.31L163.91 16.31Q163.59 16.20 163.27 15.87Q162.95 15.54 162.67 15.08L162.67 15.08Q162.81 14.77 163.02 14.31Q163.23 13.86 163.51 13.21Q163.79 12.56 164.13 11.68Q164.47 10.81 164.86 9.66L164.86 9.66Q165.12 8.90 165.30 8.33Q165.48 7.76 165.63 7.22Q165.77 6.68 165.91 6.09Q166.05 5.50 166.22 4.73L166.22 4.73Q166.78 4.84 167.19 5.14Q167.61 5.45 167.99 6.01L167.99 6.01Q167.87 6.19 167.69 6.59Q167.51 7 167.26 7.58Q167.02 8.16 166.73 8.90Q166.43 9.63 166.11 10.47L166.11 10.47Q165.80 11.30 165.51 12.03Q165.21 12.75 164.98 13.34Q164.75 13.93 164.61 14.35Q164.47 14.77 164.47 14.98L164.47 14.98Q164.70 14.97 164.88 14.95Q165.06 14.94 165.26 14.90Q165.45 14.87 165.68 14.82Q165.91 14.77 166.24 14.69L166.24 14.69Q166.52 14.62 166.75 14.57Q166.99 14.52 167.22 14.48Q167.45 14.45 167.70 14.43Q167.94 14.41 168.25 14.38ZM182.67 9.21L182.67 9.21Q183.13 9.21 183.39 9.46Q183.65 9.72 183.65 10.16L183.65 10.16Q183.65 10.28 183.63 10.39Q183.61 10.51 183.58 10.60L183.58 10.60Q183.40 10.57 183.18 10.55Q182.95 10.53 182.64 10.53L182.64 10.53Q182.04 10.53 181.43 10.63Q180.81 10.74 180.25 10.81L180.25 10.81Q179.93 11.55 179.66 12.24Q179.40 12.94 179.21 13.51Q179.02 14.08 178.91 14.50Q178.81 14.92 178.79 15.13L178.79 15.13Q179.93 14.90 181.08 14.73Q182.24 14.56 183.51 14.48L183.51 14.48Q183.67 14.71 183.77 14.99Q183.88 15.27 183.88 15.60L183.88 15.60Q183.88 15.68 183.88 15.78Q183.88 15.88 183.85 15.97L183.85 15.97Q183.46 15.96 183.02 15.95Q182.59 15.95 181.89 15.95L181.89 15.95Q181.43 15.95 181.01 15.97Q180.60 15.99 180.18 16.03Q179.76 16.07 179.29 16.14Q178.82 16.21 178.23 16.31L178.23 16.31Q177.59 16.06 176.99 15.08L176.99 15.08Q177.23 14.57 177.65 13.54Q178.08 12.52 178.74 10.79L178.74 10.79Q178.11 10.60 177.91 10.09L177.91 10.09Q177.98 10.02 178.32 9.92Q178.65 9.81 179.14 9.70L179.14 9.70Q179.35 9.16 179.50 8.75Q179.65 8.34 179.76 7.99Q179.87 7.63 179.96 7.29Q180.05 6.94 180.14 6.54L180.14 6.54Q179.65 6.51 179.37 6.27Q179.09 6.02 179.09 5.63L179.09 5.63Q179.09 5.52 179.12 5.36Q179.16 5.21 179.20 5.10L179.20 5.10Q179.48 5.14 179.74 5.15Q180.00 5.17 180.42 5.17L180.42 5.17Q181.30 5.17 182.07 5.12Q182.84 5.07 183.46 5.01Q184.09 4.96 184.53 4.91Q184.98 4.86 185.22 4.86L185.22 4.86Q185.54 4.86 185.79 5.19Q186.05 5.53 186.17 6.15L186.17 6.15Q185.74 6.10 185.47 6.09Q185.19 6.08 184.98 6.08L184.98 6.08Q184.21 6.08 183.57 6.15Q182.94 6.23 182.35 6.31L182.35 6.31Q182.27 6.44 182.16 6.64Q182.06 6.83 181.89 7.18Q181.72 7.53 181.47 8.06Q181.23 8.60 180.88 9.39L180.88 9.39Q181.41 9.31 181.88 9.26Q182.35 9.21 182.67 9.21ZM193.66 16.24L193.66 16.24Q192.86 16.00 192.58 15.79Q192.30 15.57 192.30 15.19L192.30 15.19Q192.30 14.77 192.50 14.01Q192.70 13.24 193.01 12.31Q193.33 11.37 193.73 10.35Q194.14 9.32 194.56 8.39Q194.98 7.45 195.38 6.67Q195.78 5.89 196.08 5.46L196.08 5.46L195.99 4.87Q196.18 4.87 196.53 4.97Q196.88 5.07 197.24 5.21Q197.60 5.35 197.87 5.49Q198.14 5.64 198.17 5.74L198.17 5.74Q198.10 6.08 198.06 6.76Q198.02 7.43 198.02 8.20L198.02 8.20Q198.02 9.73 198.14 11.19Q198.25 12.66 198.69 14.17L198.69 14.17Q198.91 13.05 199.17 11.94Q199.43 10.82 199.71 9.81Q199.99 8.79 200.27 7.92Q200.55 7.06 200.81 6.40Q201.07 5.75 201.29 5.38Q201.52 5.01 201.70 4.98L201.70 4.98Q201.85 5.01 202.03 5.10Q202.22 5.19 202.38 5.32Q202.55 5.45 202.69 5.60Q202.83 5.75 202.92 5.91L202.92 5.91Q202.47 6.09 202.03 6.76Q201.59 7.43 201.19 8.39Q200.79 9.35 200.45 10.47Q200.10 11.59 199.84 12.68Q199.58 13.76 199.44 14.69Q199.29 15.61 199.28 16.17L199.28 16.17Q199.28 16.20 199.29 16.21L199.29 16.21Q199.25 16.23 199.20 16.23Q199.15 16.23 199.11 16.23L199.11 16.23Q198.46 16.23 197.97 16.07Q197.47 15.90 197.32 15.61L197.32 15.61Q197.02 14.43 196.83 13.34Q196.63 12.25 196.50 11.16Q196.36 10.07 196.29 8.95Q196.21 7.84 196.17 6.62L196.17 6.62Q195.90 7.04 195.61 7.72Q195.31 8.40 195.03 9.21Q194.75 10.02 194.50 10.92Q194.24 11.82 194.04 12.67Q193.84 13.52 193.73 14.29Q193.62 15.05 193.62 15.61L193.62 15.61Q193.62 15.90 193.63 16.03Q193.63 16.16 193.66 16.24ZM209.55 12.43L209.55 12.43Q209.55 11.45 209.78 10.51Q210.01 9.56 210.43 8.71Q210.85 7.87 211.44 7.16Q212.02 6.45 212.71 5.94Q213.40 5.42 214.19 5.13Q214.97 4.84 215.80 4.84L215.80 4.84Q216.76 4.84 217.30 5.25Q217.84 5.66 217.84 6.38L217.84 6.38Q217.84 6.66 217.76 6.96Q217.69 7.25 217.54 7.54Q217.39 7.83 217.20 8.09Q217.00 8.36 216.76 8.55L216.76 8.55Q216.40 8.50 216.13 8.22Q215.87 7.95 215.80 7.59L215.80 7.59Q216.29 7.18 216.57 6.74Q216.86 6.30 216.86 5.94L216.86 5.94Q216.86 5.32 216.09 5.32L216.09 5.32Q215.77 5.32 215.43 5.45Q215.08 5.59 214.73 5.82Q214.38 6.06 214.05 6.40Q213.72 6.73 213.44 7.14L213.44 7.14Q211.50 9.94 211.50 12.87L211.50 12.87Q211.50 13.90 211.82 14.53Q212.14 15.16 212.67 15.27L212.67 15.27Q213.28 15.13 214.20 14.50Q215.12 13.87 216.22 12.87L216.22 12.87Q216.36 13.01 216.38 13.16L216.38 13.16Q215.98 13.69 215.54 14.18Q215.11 14.67 214.68 15.08Q214.26 15.48 213.84 15.79Q213.43 16.10 213.08 16.27L213.08 16.27Q211.34 16.24 210.45 15.27Q209.55 14.31 209.55 12.43ZM230.15 9.21L230.15 9.21Q230.61 9.21 230.87 9.46Q231.13 9.72 231.13 10.16L231.13 10.16Q231.13 10.28 231.11 10.39Q231.08 10.51 231.06 10.60L231.06 10.60Q230.87 10.57 230.65 10.55Q230.43 10.53 230.12 10.53L230.12 10.53Q229.52 10.53 228.90 10.63Q228.28 10.74 227.72 10.81L227.72 10.81Q227.40 11.55 227.14 12.24Q226.87 12.94 226.68 13.51Q226.49 14.08 226.39 14.50Q226.28 14.92 226.27 15.13L226.27 15.13Q227.40 14.90 228.56 14.73Q229.71 14.56 230.99 14.48L230.99 14.48Q231.14 14.71 231.25 14.99Q231.35 15.27 231.35 15.60L231.35 15.60Q231.35 15.68 231.35 15.78Q231.35 15.88 231.32 15.97L231.32 15.97Q230.93 15.96 230.50 15.95Q230.06 15.95 229.36 15.95L229.36 15.95Q228.90 15.95 228.49 15.97Q228.07 15.99 227.65 16.03Q227.23 16.07 226.77 16.14Q226.30 16.21 225.71 16.31L225.71 16.31Q225.06 16.06 224.46 15.08L224.46 15.08Q224.70 14.57 225.13 13.54Q225.55 12.52 226.21 10.79L226.21 10.79Q225.58 10.60 225.39 10.09L225.39 10.09Q225.46 10.02 225.79 9.92Q226.13 9.81 226.62 9.70L226.62 9.70Q226.83 9.16 226.98 8.75Q227.12 8.34 227.23 7.99Q227.35 7.63 227.44 7.29Q227.53 6.94 227.61 6.54L227.61 6.54Q227.12 6.51 226.84 6.27Q226.56 6.02 226.56 5.63L226.56 5.63Q226.56 5.52 226.60 5.36Q226.63 5.21 226.67 5.10L226.67 5.10Q226.95 5.14 227.21 5.15Q227.47 5.17 227.89 5.17L227.89 5.17Q228.77 5.17 229.54 5.12Q230.31 5.07 230.94 5.01Q231.56 4.96 232.01 4.91Q232.46 4.86 232.69 4.86L232.69 4.86Q233.02 4.86 233.27 5.19Q233.52 5.53 233.65 6.15L233.65 6.15Q233.21 6.10 232.94 6.09Q232.67 6.08 232.46 6.08L232.46 6.08Q231.69 6.08 231.05 6.15Q230.41 6.23 229.82 6.31L229.82 6.31Q229.74 6.44 229.64 6.64Q229.53 6.83 229.36 7.18Q229.19 7.53 228.95 8.06Q228.70 8.60 228.35 9.39L228.35 9.39Q228.89 9.31 229.36 9.26Q229.82 9.21 230.15 9.21ZM240.23 15.71L240.23 15.71Q240.00 15.68 239.76 15.52Q239.51 15.36 239.44 15.16L239.44 15.16Q239.44 14.99 239.49 14.73Q239.54 14.46 239.61 14.19Q239.68 13.92 239.75 13.67Q239.82 13.43 239.85 13.30L239.85 13.30Q240.02 13.30 240.28 13.38Q240.53 13.47 240.81 13.62Q241.08 13.76 241.33 13.95Q241.57 14.14 241.70 14.34L241.70 14.34Q241.57 14.62 241.37 14.87Q241.18 15.12 240.96 15.31Q240.74 15.50 240.55 15.60Q240.35 15.71 240.23 15.71ZM263.37 6.69L263.37 6.69Q262.81 6.69 262.51 6.38Q262.21 6.06 262.21 5.61L262.21 5.61Q262.21 5.50 262.24 5.35Q262.28 5.19 262.33 5.08L262.33 5.08Q262.51 5.17 262.87 5.20Q263.23 5.24 263.70 5.24L263.70 5.24Q264.42 5.24 265.32 5.17Q266.22 5.11 267.05 5.04Q267.88 4.97 268.51 4.91Q269.14 4.84 269.32 4.84L269.32 4.84Q269.84 4.84 270.07 5.23Q270.30 5.61 270.41 6.26L270.41 6.26Q270.05 6.23 269.69 6.21Q269.33 6.19 269.08 6.19L269.08 6.19Q268.63 6.19 268.18 6.22Q267.72 6.24 267.26 6.30L267.26 6.30Q267.06 6.71 266.83 7.26Q266.59 7.81 266.36 8.41Q266.13 9.02 265.92 9.61Q265.71 10.21 265.55 10.68L265.55 10.68Q265.24 11.61 265.01 12.39Q264.78 13.17 264.61 13.85Q264.43 14.53 264.31 15.15Q264.18 15.76 264.08 16.35L264.08 16.35Q263.14 16.21 262.51 15.18L262.51 15.18Q262.63 14.74 262.79 14.23Q262.95 13.72 263.17 13.07Q263.38 12.42 263.68 11.59Q263.97 10.77 264.35 9.72L264.35 9.72Q264.49 9.32 264.64 8.90Q264.80 8.47 264.94 8.05Q265.09 7.63 265.21 7.24Q265.33 6.85 265.41 6.52L265.41 6.52Q264.82 6.59 264.30 6.64Q263.77 6.69 263.37 6.69ZM285.35 7.46L285.35 7.46Q285.35 8.13 285.05 8.73Q284.75 9.32 284.21 9.79Q283.68 10.26 282.97 10.58Q282.25 10.91 281.41 11.02L281.41 11.02Q281.62 11.65 281.93 12.31Q282.23 12.98 282.58 13.59Q282.93 14.21 283.30 14.73Q283.68 15.25 284.05 15.58L284.05 15.58Q283.98 15.72 283.84 15.86Q283.71 16.00 283.53 16.12Q283.36 16.24 283.17 16.32Q282.98 16.39 282.81 16.39L282.81 16.39Q282.51 16.39 282.23 16.10Q281.95 15.81 281.66 15.17Q281.37 14.53 281.06 13.52Q280.74 12.50 280.36 11.07L280.36 11.07Q280.21 11.07 280.06 11.07Q279.90 11.07 279.82 11.05L279.82 11.05Q279.72 10.99 279.61 10.85L279.61 10.85Q279.23 11.66 278.94 12.38Q278.64 13.09 278.41 13.76Q278.18 14.42 278.00 15.04Q277.83 15.67 277.70 16.31L277.70 16.31Q277.23 16.20 276.88 15.90Q276.53 15.61 276.22 15.08L276.22 15.08Q276.28 14.95 276.34 14.83Q276.40 14.71 276.50 14.50Q276.60 14.28 276.75 13.94Q276.89 13.61 277.14 13.05Q277.38 12.49 277.72 11.68Q278.07 10.86 278.56 9.70L278.56 9.70Q278.78 9.18 278.94 8.79Q279.10 8.40 279.23 8.04Q279.36 7.69 279.46 7.33Q279.57 6.97 279.68 6.51L279.68 6.51Q279.03 6.73 278.48 7.01Q277.93 7.28 277.56 7.59L277.56 7.59Q277.44 7.50 277.31 7.34Q277.17 7.17 277.06 6.96Q276.95 6.76 276.86 6.55Q276.78 6.34 276.77 6.17L276.77 6.17Q277.19 5.89 277.79 5.66Q278.40 5.42 279.09 5.24Q279.78 5.07 280.49 4.97Q281.20 4.87 281.82 4.87L281.82 4.87Q283.50 4.87 284.42 5.56Q285.35 6.26 285.35 7.46ZM281.76 6.02L281.93 6.29Q281.83 6.41 281.62 6.79Q281.41 7.17 281.14 7.69Q280.87 8.22 280.57 8.83Q280.27 9.45 279.99 10.05L279.99 10.05Q281.04 10.05 281.92 9.86Q282.80 9.66 283.44 9.30Q284.09 8.95 284.44 8.46Q284.80 7.98 284.80 7.39L284.80 7.39Q284.80 6.69 284.30 6.32Q283.79 5.95 282.74 5.95L282.74 5.95Q282.51 5.95 282.27 5.97Q282.03 5.99 281.76 6.02L281.76 6.02ZM297.77 5.75L297.77 5.75Q297.15 6.58 296.65 7.57Q296.14 8.57 295.78 9.61Q295.43 10.65 295.24 11.67Q295.05 12.68 295.05 13.57L295.05 13.57Q295.05 14.66 295.37 15.15Q295.69 15.64 296.48 15.64L296.48 15.64Q297.39 15.64 298.07 15.00Q298.76 14.36 299.36 13.24L299.36 13.24Q299.75 12.52 300.03 11.65Q300.31 10.78 300.49 9.86Q300.66 8.95 300.75 8.02Q300.83 7.08 300.83 6.23L300.83 6.23Q300.83 5.68 300.82 5.43Q300.80 5.18 300.78 5.03L300.78 5.03Q300.82 5.03 300.99 5.05Q301.15 5.08 301.37 5.12Q301.59 5.17 301.80 5.24Q302.02 5.31 302.18 5.39L302.18 5.39Q302.11 6.45 301.92 7.59Q301.73 8.72 301.42 9.83Q301.11 10.93 300.71 11.96Q300.30 12.98 299.80 13.79L299.80 13.79Q299.05 14.99 298.13 15.67Q297.21 16.35 295.95 16.35L295.95 16.35Q294.66 16.35 293.94 15.60Q293.23 14.85 293.23 13.33L293.23 13.33Q293.23 12.45 293.43 11.33Q293.62 10.22 293.95 9.07Q294.28 7.91 294.71 6.81Q295.15 5.71 295.62 4.84L295.62 4.84Q295.86 4.86 296.18 4.94Q296.51 5.03 296.81 5.16Q297.12 5.29 297.38 5.45Q297.64 5.61 297.77 5.75ZM318.28 5.74L318.28 5.74Q318.32 5.98 318.34 6.07Q318.36 6.16 318.36 6.31L318.36 6.31Q318.36 6.78 318.16 7.18Q317.95 7.57 317.60 7.74L317.60 7.74Q317.32 7.36 316.92 7.09Q316.51 6.82 316.03 6.64Q315.55 6.47 315.03 6.38Q314.51 6.30 314.02 6.30L314.02 6.30Q313.53 6.30 313.10 6.38Q312.68 6.45 312.35 6.59Q312.02 6.72 311.83 6.92Q311.64 7.11 311.64 7.36L311.64 7.36Q311.68 7.67 312.02 7.99Q312.35 8.30 312.84 8.60Q313.33 8.90 313.93 9.20Q314.52 9.49 315.10 9.76L315.10 9.76Q315.81 10.09 316.33 10.38Q316.85 10.67 317.18 11.01Q317.52 11.35 317.69 11.79Q317.86 12.22 317.86 12.84L317.86 12.84Q317.86 13.55 317.62 14.18Q317.38 14.80 316.92 15.26Q316.47 15.72 315.83 15.98Q315.18 16.24 314.38 16.24L314.38 16.24Q313.60 16.24 312.69 16.00Q311.78 15.76 310.99 15.35Q310.20 14.94 309.67 14.40Q309.15 13.86 309.15 13.26L309.15 13.26Q309.15 12.98 309.31 12.54Q309.47 12.11 309.89 11.63L309.89 11.63Q309.93 12.05 310.34 12.63Q310.76 13.20 311.58 13.69L311.58 13.69Q312.35 14.14 313.17 14.34Q313.99 14.55 314.71 14.55L314.71 14.55Q315.49 14.55 315.98 14.35Q316.47 14.15 316.75 13.88Q317.03 13.61 317.14 13.33Q317.25 13.05 317.27 12.88L317.27 12.88Q317.25 12.60 317.01 12.34Q316.76 12.08 316.35 11.84Q315.94 11.59 315.39 11.34Q314.85 11.09 314.26 10.84L314.26 10.84Q313.38 10.44 312.74 10.10Q312.10 9.76 311.69 9.40Q311.28 9.04 311.09 8.65Q310.90 8.26 310.90 7.76L310.90 7.76Q310.90 6.97 311.37 6.27Q311.85 5.57 312.75 5.21L312.75 5.21Q313.19 5.01 313.70 4.93Q314.22 4.84 314.71 4.84L314.71 4.84Q315.63 4.84 316.51 5.10Q317.39 5.35 318.28 5.74ZM328.26 6.69L328.26 6.69Q327.70 6.69 327.40 6.38Q327.10 6.06 327.10 5.61L327.10 5.61Q327.10 5.50 327.13 5.35Q327.17 5.19 327.22 5.08L327.22 5.08Q327.40 5.17 327.76 5.20Q328.12 5.24 328.59 5.24L328.59 5.24Q329.31 5.24 330.21 5.17Q331.11 5.11 331.94 5.04Q332.77 4.97 333.40 4.91Q334.03 4.84 334.21 4.84L334.21 4.84Q334.73 4.84 334.96 5.23Q335.19 5.61 335.30 6.26L335.30 6.26Q334.94 6.23 334.58 6.21Q334.22 6.19 333.97 6.19L333.97 6.19Q333.52 6.19 333.07 6.22Q332.61 6.24 332.15 6.30L332.15 6.30Q331.95 6.71 331.72 7.26Q331.48 7.81 331.25 8.41Q331.02 9.02 330.81 9.61Q330.60 10.21 330.44 10.68L330.44 10.68Q330.13 11.61 329.90 12.39Q329.67 13.17 329.50 13.85Q329.32 14.53 329.20 15.15Q329.07 15.76 328.97 16.35L328.97 16.35Q328.03 16.21 327.40 15.18L327.40 15.18Q327.52 14.74 327.68 14.23Q327.84 13.72 328.05 13.07Q328.27 12.42 328.57 11.59Q328.86 10.77 329.24 9.72L329.24 9.72Q329.38 9.32 329.53 8.90Q329.69 8.47 329.83 8.05Q329.98 7.63 330.10 7.24Q330.22 6.85 330.30 6.52L330.30 6.52Q329.71 6.59 329.19 6.64Q328.66 6.69 328.26 6.69ZM346.50 9.21L346.50 9.21Q346.96 9.21 347.22 9.46Q347.48 9.72 347.48 10.16L347.48 10.16Q347.48 10.28 347.46 10.39Q347.44 10.51 347.41 10.60L347.41 10.60Q347.23 10.57 347.00 10.55Q346.78 10.53 346.47 10.53L346.47 10.53Q345.87 10.53 345.25 10.63Q344.64 10.74 344.08 10.81L344.08 10.81Q343.76 11.55 343.49 12.24Q343.22 12.94 343.03 13.51Q342.85 14.08 342.74 14.50Q342.64 14.92 342.62 15.13L342.62 15.13Q343.76 14.90 344.91 14.73Q346.07 14.56 347.34 14.48L347.34 14.48Q347.49 14.71 347.60 14.99Q347.70 15.27 347.70 15.60L347.70 15.60Q347.70 15.68 347.70 15.78Q347.70 15.88 347.68 15.97L347.68 15.97Q347.28 15.96 346.85 15.95Q346.42 15.95 345.72 15.95L345.72 15.95Q345.25 15.95 344.84 15.97Q344.43 15.99 344.01 16.03Q343.59 16.07 343.12 16.14Q342.65 16.21 342.06 16.31L342.06 16.31Q341.42 16.06 340.82 15.08L340.82 15.08Q341.05 14.57 341.48 13.54Q341.91 12.52 342.57 10.79L342.57 10.79Q341.94 10.60 341.74 10.09L341.74 10.09Q341.81 10.02 342.15 9.92Q342.48 9.81 342.97 9.70L342.97 9.70Q343.18 9.16 343.33 8.75Q343.48 8.34 343.59 7.99Q343.70 7.63 343.79 7.29Q343.88 6.94 343.97 6.54L343.97 6.54Q343.48 6.51 343.20 6.27Q342.92 6.02 342.92 5.63L342.92 5.63Q342.92 5.52 342.95 5.36Q342.99 5.21 343.03 5.10L343.03 5.10Q343.31 5.14 343.57 5.15Q343.83 5.17 344.25 5.17L344.25 5.17Q345.13 5.17 345.90 5.12Q346.67 5.07 347.29 5.01Q347.91 4.96 348.36 4.91Q348.81 4.86 349.05 4.86L349.05 4.86Q349.37 4.86 349.62 5.19Q349.87 5.53 350.00 6.15L350.00 6.15Q349.57 6.10 349.29 6.09Q349.02 6.08 348.81 6.08L348.81 6.08Q348.04 6.08 347.40 6.15Q346.77 6.23 346.18 6.31L346.18 6.31Q346.09 6.44 345.99 6.64Q345.88 6.83 345.72 7.18Q345.55 7.53 345.30 8.06Q345.06 8.60 344.71 9.39L344.71 9.39Q345.24 9.31 345.71 9.26Q346.18 9.21 346.50 9.21ZM357.18 14.45L357.18 14.45Q357.39 13.99 357.69 13.26Q357.98 12.53 358.30 11.68Q358.62 10.84 358.96 9.95Q359.30 9.06 359.59 8.26Q359.88 7.46 360.10 6.83Q360.32 6.20 360.42 5.87L360.42 5.87Q359.53 6.23 358.90 6.97Q358.27 7.71 357.95 8.83L357.95 8.83Q357.63 8.72 357.36 8.43Q357.10 8.15 357.01 7.71L357.01 7.71Q357.15 7.07 357.54 6.54Q357.92 6.01 358.51 5.63Q359.10 5.25 359.87 5.05Q360.64 4.84 361.52 4.84L361.52 4.84Q362.64 4.84 363.58 5.17Q364.52 5.50 365.19 6.09Q365.86 6.68 366.24 7.50Q366.62 8.33 366.62 9.34L366.62 9.34Q366.62 10.71 366.11 11.96Q365.61 13.20 364.75 14.15Q363.89 15.11 362.75 15.67Q361.62 16.24 360.37 16.24L360.37 16.24Q359.23 16.24 358.41 15.79Q357.59 15.33 357.18 14.45ZM362.12 5.54L362.12 5.54Q361.42 5.54 360.79 5.74L360.79 5.74Q361.41 5.96 361.82 6.21Q362.22 6.45 362.38 6.59L362.38 6.59Q362.26 6.75 362.05 7.14Q361.83 7.53 361.54 8.09Q361.26 8.65 360.93 9.32Q360.61 9.98 360.30 10.68L360.30 10.68Q359.51 12.46 359.15 13.48Q358.79 14.50 358.79 14.90L358.79 14.90Q358.99 14.97 359.27 14.99Q359.55 15.02 359.87 15.02L359.87 15.02Q361.00 15.02 362.02 14.50Q363.03 13.97 363.80 13.09Q364.56 12.21 365.00 11.04Q365.44 9.87 365.44 8.58L365.44 8.58Q365.44 7.14 364.55 6.34Q363.65 5.54 362.12 5.54ZM393.99 7.46L393.99 7.46Q393.99 8.13 393.69 8.73Q393.39 9.32 392.85 9.79Q392.32 10.26 391.61 10.58Q390.89 10.91 390.05 11.02L390.05 11.02Q390.26 11.65 390.56 12.31Q390.87 12.98 391.22 13.59Q391.57 14.21 391.94 14.73Q392.32 15.25 392.69 15.58L392.69 15.58Q392.62 15.72 392.48 15.86Q392.35 16.00 392.17 16.12Q392.00 16.24 391.81 16.32Q391.62 16.39 391.45 16.39L391.45 16.39Q391.15 16.39 390.87 16.10Q390.59 15.81 390.30 15.17Q390.01 14.53 389.70 13.52Q389.38 12.50 389.00 11.07L389.00 11.07Q388.85 11.07 388.70 11.07Q388.54 11.07 388.46 11.05L388.46 11.05Q388.36 10.99 388.25 10.85L388.25 10.85Q387.87 11.66 387.58 12.38Q387.28 13.09 387.05 13.76Q386.82 14.42 386.64 15.04Q386.47 15.67 386.34 16.31L386.34 16.31Q385.87 16.20 385.52 15.90Q385.17 15.61 384.86 15.08L384.86 15.08Q384.92 14.95 384.98 14.83Q385.04 14.71 385.14 14.50Q385.24 14.28 385.38 13.94Q385.53 13.61 385.78 13.05Q386.02 12.49 386.36 11.68Q386.71 10.86 387.20 9.70L387.20 9.70Q387.42 9.18 387.58 8.79Q387.74 8.40 387.87 8.04Q388.00 7.69 388.10 7.33Q388.21 6.97 388.32 6.51L388.32 6.51Q387.67 6.73 387.12 7.01Q386.57 7.28 386.20 7.59L386.20 7.59Q386.08 7.50 385.94 7.34Q385.81 7.17 385.70 6.96Q385.59 6.76 385.50 6.55Q385.42 6.34 385.41 6.17L385.41 6.17Q385.83 5.89 386.43 5.66Q387.04 5.42 387.73 5.24Q388.42 5.07 389.13 4.97Q389.84 4.87 390.46 4.87L390.46 4.87Q392.14 4.87 393.06 5.56Q393.99 6.26 393.99 7.46ZM390.40 6.02L390.57 6.29Q390.47 6.41 390.26 6.79Q390.05 7.17 389.78 7.69Q389.51 8.22 389.21 8.83Q388.91 9.45 388.63 10.05L388.63 10.05Q389.68 10.05 390.56 9.86Q391.44 9.66 392.08 9.30Q392.73 8.95 393.08 8.46Q393.44 7.98 393.44 7.39L393.44 7.39Q393.44 6.69 392.94 6.32Q392.43 5.95 391.38 5.95L391.38 5.95Q391.15 5.95 390.91 5.97Q390.67 5.99 390.40 6.02L390.40 6.02ZM406.81 9.21L406.81 9.21Q407.27 9.21 407.53 9.46Q407.79 9.72 407.79 10.16L407.79 10.16Q407.79 10.28 407.77 10.39Q407.75 10.51 407.72 10.60L407.72 10.60Q407.54 10.57 407.32 10.55Q407.09 10.53 406.78 10.53L406.78 10.53Q406.18 10.53 405.57 10.63Q404.95 10.74 404.39 10.81L404.39 10.81Q404.07 11.55 403.80 12.24Q403.54 12.94 403.35 13.51Q403.16 14.08 403.05 14.50Q402.95 14.92 402.93 15.13L402.93 15.13Q404.07 14.90 405.22 14.73Q406.38 14.56 407.65 14.48L407.65 14.48Q407.81 14.71 407.91 14.99Q408.02 15.27 408.02 15.60L408.02 15.60Q408.02 15.68 408.02 15.78Q408.02 15.88 407.99 15.97L407.99 15.97Q407.60 15.96 407.16 15.95Q406.73 15.95 406.03 15.95L406.03 15.95Q405.57 15.95 405.15 15.97Q404.74 15.99 404.32 16.03Q403.90 16.07 403.43 16.14Q402.96 16.21 402.37 16.31L402.37 16.31Q401.73 16.06 401.13 15.08L401.13 15.08Q401.37 14.57 401.79 13.54Q402.22 12.52 402.88 10.79L402.88 10.79Q402.25 10.60 402.05 10.09L402.05 10.09Q402.12 10.02 402.46 9.92Q402.79 9.81 403.28 9.70L403.28 9.70Q403.49 9.16 403.64 8.75Q403.79 8.34 403.90 7.99Q404.01 7.63 404.10 7.29Q404.19 6.94 404.28 6.54L404.28 6.54Q403.79 6.51 403.51 6.27Q403.23 6.02 403.23 5.63L403.23 5.63Q403.23 5.52 403.26 5.36Q403.30 5.21 403.34 5.10L403.34 5.10Q403.62 5.14 403.88 5.15Q404.14 5.17 404.56 5.17L404.56 5.17Q405.44 5.17 406.21 5.12Q406.98 5.07 407.60 5.01Q408.23 4.96 408.67 4.91Q409.12 4.86 409.36 4.86L409.36 4.86Q409.68 4.86 409.93 5.19Q410.19 5.53 410.31 6.15L410.31 6.15Q409.88 6.10 409.60 6.09Q409.33 6.08 409.12 6.08L409.12 6.08Q408.35 6.08 407.71 6.15Q407.08 6.23 406.49 6.31L406.49 6.31Q406.41 6.44 406.30 6.64Q406.20 6.83 406.03 7.18Q405.86 7.53 405.61 8.06Q405.37 8.60 405.02 9.39L405.02 9.39Q405.55 9.31 406.02 9.26Q406.49 9.21 406.81 9.21ZM425.68 5.74L425.68 5.74Q425.73 5.98 425.75 6.07Q425.77 6.16 425.77 6.31L425.77 6.31Q425.77 6.78 425.56 7.18Q425.36 7.57 425.01 7.74L425.01 7.74Q424.73 7.36 424.33 7.09Q423.92 6.82 423.44 6.64Q422.95 6.47 422.44 6.38Q421.92 6.30 421.43 6.30L421.43 6.30Q420.94 6.30 420.51 6.38Q420.08 6.45 419.75 6.59Q419.43 6.72 419.24 6.92Q419.05 7.11 419.05 7.36L419.05 7.36Q419.09 7.67 419.43 7.99Q419.76 8.30 420.25 8.60Q420.74 8.90 421.34 9.20Q421.93 9.49 422.51 9.76L422.51 9.76Q423.22 10.09 423.74 10.38Q424.26 10.67 424.59 11.01Q424.93 11.35 425.10 11.79Q425.26 12.22 425.26 12.84L425.26 12.84Q425.26 13.55 425.03 14.18Q424.79 14.80 424.33 15.26Q423.88 15.72 423.23 15.98Q422.59 16.24 421.79 16.24L421.79 16.24Q421.01 16.24 420.10 16.00Q419.19 15.76 418.40 15.35Q417.61 14.94 417.08 14.40Q416.56 13.86 416.56 13.26L416.56 13.26Q416.56 12.98 416.72 12.54Q416.88 12.11 417.30 11.63L417.30 11.63Q417.34 12.05 417.75 12.63Q418.17 13.20 418.99 13.69L418.99 13.69Q419.76 14.14 420.58 14.34Q421.40 14.55 422.11 14.55L422.11 14.55Q422.90 14.55 423.39 14.35Q423.88 14.15 424.16 13.88Q424.44 13.61 424.55 13.33Q424.66 13.05 424.68 12.88L424.68 12.88Q424.66 12.60 424.42 12.34Q424.17 12.08 423.76 11.84Q423.35 11.59 422.80 11.34Q422.25 11.09 421.67 10.84L421.67 10.84Q420.78 10.44 420.15 10.10Q419.51 9.76 419.10 9.40Q418.68 9.04 418.49 8.65Q418.31 8.26 418.31 7.76L418.31 7.76Q418.31 6.97 418.78 6.27Q419.26 5.57 420.15 5.21L420.15 5.21Q420.60 5.01 421.11 4.93Q421.62 4.84 422.11 4.84L422.11 4.84Q423.04 4.84 423.92 5.10Q424.80 5.35 425.68 5.74ZM438.68 5.75L438.68 5.75Q438.06 6.58 437.56 7.57Q437.05 8.57 436.69 9.61Q436.34 10.65 436.15 11.67Q435.96 12.68 435.96 13.57L435.96 13.57Q435.96 14.66 436.28 15.15Q436.60 15.64 437.39 15.64L437.39 15.64Q438.30 15.64 438.98 15.00Q439.67 14.36 440.27 13.24L440.27 13.24Q440.66 12.52 440.94 11.65Q441.22 10.78 441.40 9.86Q441.57 8.95 441.66 8.02Q441.74 7.08 441.74 6.23L441.74 6.23Q441.74 5.68 441.73 5.43Q441.71 5.18 441.69 5.03L441.69 5.03Q441.73 5.03 441.90 5.05Q442.06 5.08 442.28 5.12Q442.50 5.17 442.71 5.24Q442.93 5.31 443.09 5.39L443.09 5.39Q443.02 6.45 442.83 7.59Q442.64 8.72 442.33 9.83Q442.02 10.93 441.62 11.96Q441.21 12.98 440.71 13.79L440.71 13.79Q439.96 14.99 439.04 15.67Q438.12 16.35 436.86 16.35L436.86 16.35Q435.57 16.35 434.85 15.60Q434.14 14.85 434.14 13.33L434.14 13.33Q434.14 12.45 434.34 11.33Q434.53 10.22 434.86 9.07Q435.19 7.91 435.62 6.81Q436.06 5.71 436.53 4.84L436.53 4.84Q436.77 4.86 437.09 4.94Q437.42 5.03 437.72 5.16Q438.03 5.29 438.29 5.45Q438.55 5.61 438.68 5.75ZM455.27 14.38L455.27 14.38Q455.62 14.98 455.62 15.54L455.62 15.54Q455.62 15.67 455.59 15.77Q455.57 15.88 455.55 15.99L455.55 15.99Q455.31 15.96 455.05 15.95Q454.79 15.93 454.51 15.93L454.51 15.93Q454.17 15.93 453.83 15.95Q453.49 15.97 453.07 16.02Q452.65 16.06 452.13 16.13Q451.61 16.20 450.93 16.31L450.93 16.31Q450.60 16.20 450.28 15.87Q449.96 15.54 449.68 15.08L449.68 15.08Q449.82 14.77 450.03 14.31Q450.24 13.86 450.52 13.21Q450.80 12.56 451.14 11.68Q451.49 10.81 451.88 9.66L451.88 9.66Q452.13 8.90 452.31 8.33Q452.49 7.76 452.64 7.22Q452.79 6.68 452.93 6.09Q453.07 5.50 453.24 4.73L453.24 4.73Q453.80 4.84 454.21 5.14Q454.62 5.45 455.00 6.01L455.00 6.01Q454.89 6.19 454.71 6.59Q454.52 7 454.28 7.58Q454.03 8.16 453.74 8.90Q453.45 9.63 453.12 10.47L453.12 10.47Q452.82 11.30 452.52 12.03Q452.23 12.75 452.00 13.34Q451.77 13.93 451.63 14.35Q451.49 14.77 451.49 14.98L451.49 14.98Q451.71 14.97 451.89 14.95Q452.07 14.94 452.27 14.90Q452.47 14.87 452.70 14.82Q452.93 14.77 453.25 14.69L453.25 14.69Q453.53 14.62 453.77 14.57Q454.01 14.52 454.24 14.48Q454.47 14.45 454.71 14.43Q454.96 14.41 455.27 14.38ZM465.82 6.69L465.82 6.69Q465.26 6.69 464.96 6.38Q464.66 6.06 464.66 5.61L464.66 5.61Q464.66 5.50 464.69 5.35Q464.73 5.19 464.79 5.08L464.79 5.08Q464.97 5.17 465.32 5.20Q465.68 5.24 466.16 5.24L466.16 5.24Q466.87 5.24 467.77 5.17Q468.68 5.11 469.50 5.04Q470.33 4.97 470.96 4.91Q471.59 4.84 471.77 4.84L471.77 4.84Q472.29 4.84 472.52 5.23Q472.75 5.61 472.86 6.26L472.86 6.26Q472.50 6.23 472.14 6.21Q471.79 6.19 471.53 6.19L471.53 6.19Q471.09 6.19 470.63 6.22Q470.18 6.24 469.71 6.30L469.71 6.30Q469.52 6.71 469.28 7.26Q469.04 7.81 468.81 8.41Q468.58 9.02 468.37 9.61Q468.16 10.21 468.01 10.68L468.01 10.68Q467.70 11.61 467.47 12.39Q467.24 13.17 467.06 13.85Q466.89 14.53 466.76 15.15Q466.63 15.76 466.54 16.35L466.54 16.35Q465.60 16.21 464.97 15.18L464.97 15.18Q465.08 14.74 465.24 14.23Q465.40 13.72 465.62 13.07Q465.84 12.42 466.13 11.59Q466.42 10.77 466.80 9.72L466.80 9.72Q466.94 9.32 467.10 8.90Q467.25 8.47 467.40 8.05Q467.54 7.63 467.66 7.24Q467.78 6.85 467.87 6.52L467.87 6.52Q467.28 6.59 466.75 6.64Q466.23 6.69 465.82 6.69ZM487.41 5.74L487.41 5.74Q487.45 5.98 487.47 6.07Q487.49 6.16 487.49 6.31L487.49 6.31Q487.49 6.78 487.29 7.18Q487.09 7.57 486.74 7.74L486.74 7.74Q486.46 7.36 486.05 7.09Q485.65 6.82 485.16 6.64Q484.68 6.47 484.16 6.38Q483.64 6.30 483.15 6.30L483.15 6.30Q482.66 6.30 482.24 6.38Q481.81 6.45 481.48 6.59Q481.15 6.72 480.96 6.92Q480.77 7.11 480.77 7.36L480.77 7.36Q480.82 7.67 481.15 7.99Q481.49 8.30 481.98 8.60Q482.47 8.90 483.06 9.20Q483.66 9.49 484.23 9.76L484.23 9.76Q484.95 10.09 485.46 10.38Q485.98 10.67 486.32 11.01Q486.65 11.35 486.82 11.79Q486.99 12.22 486.99 12.84L486.99 12.84Q486.99 13.55 486.75 14.18Q486.51 14.80 486.06 15.26Q485.60 15.72 484.96 15.98Q484.32 16.24 483.52 16.24L483.52 16.24Q482.73 16.24 481.82 16.00Q480.91 15.76 480.12 15.35Q479.33 14.94 478.81 14.40Q478.28 13.86 478.28 13.26L478.28 13.26Q478.28 12.98 478.44 12.54Q478.60 12.11 479.02 11.63L479.02 11.63Q479.07 12.05 479.48 12.63Q479.89 13.20 480.72 13.69L480.72 13.69Q481.49 14.14 482.31 14.34Q483.13 14.55 483.84 14.55L483.84 14.55Q484.62 14.55 485.11 14.35Q485.60 14.15 485.88 13.88Q486.16 13.61 486.28 13.33Q486.39 13.05 486.40 12.88L486.40 12.88Q486.39 12.60 486.14 12.34Q485.90 12.08 485.48 11.84Q485.07 11.59 484.53 11.34Q483.98 11.09 483.39 10.84L483.39 10.84Q482.51 10.44 481.87 10.10Q481.24 9.76 480.82 9.40Q480.41 9.04 480.22 8.65Q480.03 8.26 480.03 7.76L480.03 7.76Q480.03 6.97 480.51 6.27Q480.98 5.57 481.88 5.21L481.88 5.21Q482.33 5.01 482.84 4.93Q483.35 4.84 483.84 4.84L483.84 4.84Q484.76 4.84 485.65 5.10Q486.53 5.35 487.41 5.74Z"></path></g></svg>