<svg data-v-423bf9ae="" xmlns="http://www.w3.org/2000/svg" viewBox="0 0 713.6720647862123 60" class="font"><!----><!----><!----><g data-v-423bf9ae="" id="a5245821-c193-46a2-811e-26009acb36fd" fill="black" transform="matrix(5.7526364568010235,0,0,5.7526364568010235,-8.686494110441686,-18.178331458825404)"><path d="M2.60 3.51L2.60 3.51L5.39 3.47Q8.16 3.47 9.51 4.60Q10.85 5.73 10.85 8.06L10.85 8.06Q10.85 9.51 10.33 10.65Q9.81 11.80 8.82 12.46L8.82 12.46Q7.59 13.29 5.45 13.29L5.45 13.29L5.18 13.29L2.60 13.27L1.51 13.27L1.51 12.96Q1.75 12.07 1.75 10.19L1.75 10.19L1.75 6.58Q1.75 4.69 1.51 3.79L1.51 3.79L1.51 3.49Q2.13 3.51 2.60 3.51ZM3.74 7.78L3.74 7.78L3.74 8.60Q3.74 11.61 3.78 12.07L3.78 12.07Q4.69 12.14 5.38 12.14L5.38 12.14Q7.13 12.14 7.80 11.75L7.80 11.75Q8.74 10.77 8.74 8.29L8.74 8.29Q8.74 6.23 7.90 5.37Q7.07 4.51 5.12 4.51L5.12 4.51Q5.07 4.51 3.77 4.52L3.77 4.52Q3.74 5.19 3.74 7.78ZM15.15 13.47L15.15 13.47Q13.72 13.47 13.22 12.86Q12.73 12.25 12.73 10.88L12.73 10.88L12.73 9.21Q12.73 7.83 12.31 6.87L12.31 6.87L12.31 6.57L14.74 6.57L14.74 6.90Q14.53 7.63 14.53 8.79L14.53 8.79L14.53 10.65Q14.53 11.35 14.77 11.74Q15.01 12.12 15.44 12.12L15.44 12.12Q16.18 12.12 17.21 11.41L17.21 11.41L17.21 9.21Q17.21 7.80 16.80 6.87L16.80 6.87L16.80 6.57L19.22 6.57L19.22 6.90Q19.01 7.63 19.01 8.79L19.01 8.79L19.01 10.65Q19.01 11.28 19.21 11.89Q19.42 12.49 19.70 12.73L19.70 12.73L19.74 13.03L17.54 13.59Q17.25 13.09 17.21 12.46L17.21 12.46Q16.00 13.47 15.15 13.47ZM26.11 6.30L26.11 6.30Q27.16 6.30 27.73 6.95Q28.31 7.60 28.31 8.83L28.31 8.83L28.31 10.61Q28.31 12.00 28.73 12.98L28.73 12.98L28.73 13.29L26.26 13.29L26.26 12.98Q26.50 12.32 26.50 11.09L26.50 11.09L26.50 9.34Q26.50 8.53 26.31 8.14Q26.11 7.76 25.47 7.76Q24.82 7.76 23.83 8.34L23.83 8.34L23.83 10.64Q23.83 12.11 24.23 12.98L24.23 12.98L24.23 13.29L21.78 13.29L21.78 12.98Q22.02 12.26 22.02 10.99L22.02 10.99L22.02 9.11Q22.02 7.45 21.18 7.03L21.18 7.03L21.18 6.72L23.45 6.29L23.60 6.55Q23.72 6.89 23.76 7.45L23.76 7.45Q24.47 6.87 25.00 6.59Q25.52 6.30 26.11 6.30ZM34.23 11.68L34.23 10.49Q33.73 10.30 33.12 10.30Q32.51 10.30 32.19 10.53L32.19 10.53Q31.98 10.79 31.98 11.23L31.98 11.23Q31.98 12.32 32.93 12.32L32.93 12.32Q33.71 12.32 34.23 11.68L34.23 11.68ZM32.35 13.54L32.35 13.54Q31.47 13.54 30.80 13.01Q30.13 12.47 30.13 11.47L30.13 11.47Q30.13 9.52 32.97 9.52L32.97 9.52L34.22 9.58L34.22 8.72Q34.22 7.99 33.85 7.55Q33.49 7.10 32.73 7.10L32.73 7.10Q32.56 7.10 32.30 7.27Q32.03 7.45 31.85 7.63L31.85 7.63Q31.28 8.18 30.93 8.53L30.93 8.53Q30.23 7.70 30.17 6.86L30.17 6.86Q31.96 6.30 33.19 6.30Q34.43 6.30 35.25 6.87Q36.08 7.45 36.08 8.68L36.08 8.68L36.08 10.88Q36.08 11.51 36.29 12.08Q36.50 12.66 36.81 12.85L36.81 12.85L36.83 13.16L34.83 13.58Q34.61 13.16 34.41 12.40L34.41 12.40Q34.05 12.80 33.82 12.98Q33.60 13.17 33.20 13.36Q32.80 13.54 32.35 13.54ZM42.78 6.30L42.78 6.30Q44.11 6.30 44.55 7.48L44.55 7.48Q45.01 7.10 45.30 6.89Q45.58 6.68 46.02 6.49Q46.45 6.30 46.84 6.30L46.84 6.30Q47.89 6.30 48.47 6.95Q49.04 7.60 49.04 8.83L49.04 8.83L49.04 10.75Q49.04 12.00 49.46 12.98L49.46 12.98L49.46 13.29L47.00 13.29L47.00 12.98Q47.24 12.32 47.24 11.19L47.24 11.19L47.24 9.34Q47.24 8.54 47.04 8.15Q46.84 7.76 46.22 7.76Q45.60 7.76 44.73 8.25L44.73 8.25Q44.76 8.61 44.76 8.83L44.76 8.83L44.76 10.75Q44.76 12.00 45.18 12.98L45.18 12.98L45.18 13.29L42.85 13.29L42.85 12.98Q43.09 12.32 43.09 11.19L43.09 11.19L43.09 9.34Q43.09 8.54 42.91 8.15Q42.73 7.76 42.15 7.76Q41.57 7.76 40.60 8.34L40.60 8.34L40.60 10.78Q40.60 12.11 41.01 12.98L41.01 12.98L41.01 13.29L38.56 13.29L38.56 12.98Q38.79 12.26 38.79 11.09L38.79 11.09L38.79 9.02Q38.79 7.45 37.95 7.03L37.95 7.03L37.95 6.72L40.22 6.29L40.36 6.55Q40.47 6.83 40.53 7.45L40.53 7.45Q41.19 6.86 41.69 6.58Q42.18 6.30 42.78 6.30ZM53.12 3.16L53.27 3.25Q53.40 3.36 53.45 3.72Q53.49 4.09 53.49 4.28Q53.49 4.48 53.47 4.63L53.47 4.63L53.34 4.75Q52.72 4.93 51.73 5.00L51.73 5.00L51.58 4.93Q51.46 4.75 51.40 4.33Q51.34 3.91 51.34 3.74Q51.34 3.58 51.34 3.53L51.34 3.53L51.46 3.42Q52.22 3.16 52.96 3.16L52.96 3.16L53.12 3.16ZM53.54 7.78L53.54 7.78L53.54 10.78Q53.54 12.11 53.94 12.98L53.94 12.98L53.94 13.29L51.49 13.29L51.49 12.98Q51.73 12.26 51.73 11.09L51.73 11.09L51.73 9.02Q51.73 8.25 51.49 7.73Q51.25 7.22 50.89 7.03L50.89 7.03L50.89 6.72L53.45 6.24L53.62 6.52Q53.54 6.85 53.54 7.78ZM58.49 12.38L58.49 12.38Q59.29 12.38 59.29 11.61L59.29 11.61Q59.29 10.89 57.93 10.53L57.93 10.53Q57.37 10.37 56.81 10.18Q56.25 9.98 55.86 9.55Q55.47 9.11 55.47 8.44L55.47 8.44Q55.47 7.48 56.34 6.94Q57.20 6.40 58.45 6.40Q59.70 6.40 61.05 7.00L61.05 7.00Q60.98 7.62 60.30 8.48L60.30 8.48Q59.74 7.92 59.14 7.63Q58.53 7.34 58.09 7.34Q57.64 7.34 57.40 7.43L57.40 7.43Q57.19 7.62 57.19 8.03Q57.19 8.44 57.59 8.67Q57.99 8.89 58.56 9.02Q59.14 9.16 59.71 9.35Q60.28 9.55 60.68 10.02Q61.08 10.49 61.08 11.24L61.08 11.24Q61.08 12.33 60.24 12.89Q59.39 13.44 57.99 13.44Q56.59 13.44 55.31 12.64L55.31 12.64Q55.37 11.80 55.94 11.09L55.94 11.09Q57.33 12.38 58.49 12.38ZM73.04 13.29L66.35 13.29L66.35 12.98Q66.57 12.01 66.57 10.21L66.57 10.21L66.57 6.58Q66.57 4.63 66.35 3.79L66.35 3.79L66.35 3.49L68.78 3.49L68.78 3.79Q68.68 4.12 68.62 5.11Q68.56 6.10 68.56 6.62L68.56 6.62L68.56 10.36Q68.56 11.38 68.64 12.22L68.64 12.22Q68.91 12.25 69.75 12.25L69.75 12.25Q71.96 12.25 73.02 11.80L73.02 11.80L73.29 11.80L73.04 13.29ZM77.95 11.68L77.95 10.49Q77.45 10.30 76.84 10.30Q76.23 10.30 75.91 10.53L75.91 10.53Q75.70 10.79 75.70 11.23L75.70 11.23Q75.70 12.32 76.65 12.32L76.65 12.32Q77.43 12.32 77.95 11.68L77.95 11.68ZM76.08 13.54L76.08 13.54Q75.19 13.54 74.52 13.01Q73.85 12.47 73.85 11.47L73.85 11.47Q73.85 9.52 76.69 9.52L76.69 9.52L77.94 9.58L77.94 8.72Q77.94 7.99 77.57 7.55Q77.21 7.10 76.45 7.10L76.45 7.10Q76.29 7.10 76.02 7.27Q75.75 7.45 75.57 7.63L75.57 7.63Q75.00 8.18 74.65 8.53L74.65 8.53Q73.95 7.70 73.89 6.86L73.89 6.86Q75.68 6.30 76.92 6.30Q78.15 6.30 78.97 6.87Q79.80 7.45 79.80 8.68L79.80 8.68L79.80 10.88Q79.80 11.51 80.01 12.08Q80.22 12.66 80.53 12.85L80.53 12.85L80.56 13.16L78.55 13.58Q78.33 13.16 78.13 12.40L78.13 12.40Q77.77 12.80 77.55 12.98Q77.32 13.17 76.92 13.36Q76.52 13.54 76.08 13.54ZM83.20 6.38L83.20 6.59Q83.20 6.92 83.80 8.68L83.80 8.68L84.64 11.06Q85.09 9.80 85.37 9.07L85.37 9.07Q85.64 8.39 85.86 7.57L85.86 7.57Q85.57 6.94 85.43 6.83L85.43 6.83L85.43 6.52L87.56 6.43L87.56 6.64Q87.56 7.03 88.17 8.78L88.17 8.78L89.00 11.06Q89.89 8.26 90.04 7.75Q90.19 7.24 90.19 6.62L90.19 6.62L90.19 6.48L92.09 6.48L92.08 6.80Q91.70 7.07 91.35 8.18L91.35 8.18L89.89 12.66L89.71 13.41L88.09 13.44L87.84 12.63L86.62 9.51L85.48 12.67L85.33 13.41L83.75 13.44L83.50 12.63L81.66 8.11Q81.47 7.63 81.23 7.28Q81.00 6.93 80.86 6.86L80.86 6.86L80.86 6.55L83.20 6.38ZM102.52 4.82L102.26 4.82Q101.47 4.59 100.42 4.59Q99.36 4.59 99.04 4.62L99.04 4.62Q98.99 5.03 98.99 7.71L98.99 7.71L102.21 7.64L101.70 8.96L101.43 8.96Q100.76 8.82 100.00 8.82Q99.25 8.82 98.99 8.85L98.99 8.85L98.99 10.15Q98.99 12.14 99.22 12.98L99.22 12.98L99.22 13.29L96.77 13.29L96.77 12.98Q97.01 11.97 97.01 10.16L97.01 10.16L97.01 6.62Q97.01 4.80 96.77 3.79L96.77 3.79L96.77 3.49L102.93 3.44L102.52 4.82ZM106.05 3.16L106.20 3.25Q106.33 3.36 106.38 3.72Q106.43 4.09 106.43 4.28Q106.43 4.48 106.40 4.63L106.40 4.63L106.27 4.75Q105.66 4.93 104.66 5.00L104.66 5.00L104.51 4.93Q104.40 4.75 104.33 4.33Q104.27 3.91 104.27 3.74Q104.27 3.58 104.27 3.53L104.27 3.53L104.40 3.42Q105.15 3.16 105.90 3.16L105.90 3.16L106.05 3.16ZM106.47 7.78L106.47 7.78L106.47 10.78Q106.47 12.11 106.88 12.98L106.88 12.98L106.88 13.29L104.43 13.29L104.43 12.98Q104.66 12.26 104.66 11.09L104.66 11.09L104.66 9.02Q104.66 8.25 104.43 7.73Q104.19 7.22 103.82 7.03L103.82 7.03L103.82 6.72L106.39 6.24L106.55 6.52Q106.47 6.85 106.47 7.78ZM111.24 12.98L111.24 13.29L108.79 13.29L108.79 12.98Q109.03 12.22 109.03 11.10L109.03 11.10L109.03 9.02Q109.03 8.40 108.80 7.82Q108.57 7.24 108.25 7.06L108.25 7.06L108.25 6.75L110.22 6.29L110.36 6.48Q110.45 6.61 110.61 7.06L110.61 7.06Q111.52 6.30 112.52 6.30L112.52 6.30Q113.01 6.30 113.43 6.50L113.43 6.50Q113.43 6.57 113.43 6.62L113.43 6.62Q113.43 7.50 113.08 8.39L113.08 8.39Q112.34 7.87 111.48 7.87L111.48 7.87Q111.22 7.87 110.84 7.95L110.84 7.95L110.84 10.71Q110.84 12.05 111.24 12.98L111.24 12.98ZM118.89 6.30L118.89 6.30Q120.22 6.30 120.65 7.48L120.65 7.48Q121.11 7.10 121.40 6.89Q121.69 6.68 122.12 6.49Q122.56 6.30 122.95 6.30L122.95 6.30Q124.00 6.30 124.57 6.95Q125.15 7.60 125.15 8.83L125.15 8.83L125.15 10.75Q125.15 12.00 125.57 12.98L125.57 12.98L125.57 13.29L123.10 13.29L123.10 12.98Q123.34 12.32 123.34 11.19L123.34 11.19L123.34 9.34Q123.34 8.54 123.14 8.15Q122.95 7.76 122.33 7.76Q121.70 7.76 120.83 8.25L120.83 8.25Q120.86 8.61 120.86 8.83L120.86 8.83L120.86 10.75Q120.86 12.00 121.28 12.98L121.28 12.98L121.28 13.29L118.96 13.29L118.96 12.98Q119.20 12.32 119.20 11.19L119.20 11.19L119.20 9.34Q119.20 8.54 119.01 8.15Q118.83 7.76 118.25 7.76Q117.67 7.76 116.70 8.34L116.70 8.34L116.70 10.78Q116.70 12.11 117.11 12.98L117.11 12.98L117.11 13.29L114.66 13.29L114.66 12.98Q114.90 12.26 114.90 11.09L114.90 11.09L114.90 9.02Q114.90 7.45 114.06 7.03L114.06 7.03L114.06 6.72L116.33 6.29L116.47 6.55Q116.58 6.83 116.63 7.45L116.63 7.45Q117.29 6.86 117.79 6.58Q118.29 6.30 118.89 6.30Z"></path></g><!----><!----></svg>